<?xml version="1.0" standalone="no"?><!DOCTYPE svg PUBLIC "-//W3C//DTD SVG 1.1//EN" "http://www.w3.org/Graphics/SVG/1.1/DTD/svg11.dtd"><svg t="1587487853889" class="icon" viewBox="0 0 1024 1024" version="1.1" xmlns="http://www.w3.org/2000/svg" p-id="3499" xmlns:xlink="http://www.w3.org/1999/xlink" width="50" height="50"><defs><style type="text/css"></style></defs><path d="M512 1011.2a496.384 496.384 0 0 0 448.3072-279.296 38.4 38.4 0 0 0-68.9664-33.8944A420.0448 420.0448 0 0 1 512 934.4c-232.9088 0-422.4-189.4912-422.4-422.4S279.0912 89.6 512 89.6s422.4 189.4912 422.4 422.4a38.4 38.4 0 0 0 76.8 0c0-275.2512-223.9488-499.2-499.2-499.2S12.8 236.7488 12.8 512s223.9488 499.2 499.2 499.2z" fill="#FFFFFF" p-id="3500"></path><path d="M760.4224 537.6a38.4 38.4 0 0 0-38.4-38.4h-460.8a38.4 38.4 0 0 0 0 76.8h460.8a38.4 38.4 0 0 0 38.4-38.4zM261.2224 378.8288h307.2a38.4 38.4 0 0 0 0-76.8h-307.2a38.4 38.4 0 0 0 0 76.8zM261.2224 696.3712a38.4 38.4 0 0 0 0 76.8h204.8a38.4 38.4 0 0 0 0-76.8h-204.8z" fill="#FFFFFF" p-id="3501"></path><path d="M711.5776 340.4288m-51.2 0a51.2 51.2 0 1 0 102.4 0 51.2 51.2 0 1 0-102.4 0Z" fill="#FFFFFF" p-id="3502"></path></svg>